<svg width="391" height="512" viewBox="0 0 391 512" fill="none" xmlns="http://www.w3.org/2000/svg">
<path d="M390.149 104.534V465.634C390.149 491.149 369.298 512 343.783 512H46.366C44.952 512 43.609 511.929 42.196 511.788C40.994 511.717 39.722 511.434 38.591 511.222C37.389 511.01 36.188 510.798 35.057 510.445C34.492 510.303 33.926 510.162 33.431 510.021C32.795 509.879 32.159 509.738 31.594 509.526C29.332 508.819 27.141 507.83 25.021 506.699C24.173 506.346 23.466 505.851 22.689 505.356C21.699 504.861 20.71 504.225 19.791 503.589C18.872 502.953 18.095 502.317 17.247 501.61C17.105 501.539 17.035 501.398 16.894 501.327C15.763 500.337 14.703 499.419 13.643 498.359C12.583 497.299 11.664 496.309 10.675 495.108C10.604 494.967 10.463 494.896 10.392 494.755C9.685 493.907 9.049 493.13 8.413 492.211C7.777 491.292 7.141 490.302 6.646 489.313C6.151 488.536 5.656 487.829 5.303 486.981C4.172 484.861 3.183 482.669 2.476 480.408C2.264 479.843 2.123 479.206 1.982 478.57C1.841 478.075 1.699 477.51 1.558 476.944C1.204 475.813 0.992 474.612 0.78 473.41C0.568 472.279 0.285 471.078 0.215 469.806C0.071 468.391 0 467.048 0 465.634V104.534C0 79.09 20.85 58.24 46.366 58.24H343.784C345.48 58.24 347.247 58.311 348.943 58.593C360.393 59.866 370.5 65.308 377.851 73.294C383.434 79.302 387.392 86.864 389.159 95.275C389.23 95.77 389.371 96.265 389.442 96.759C389.584 97.607 389.725 98.526 389.866 99.445C389.937 99.798 389.937 100.152 389.937 100.576C390.078 101.849 390.149 103.192 390.149 104.534Z" fill="#575565"/>
<path d="M358.964 89.614H31.1851V480.601H358.964V89.614Z" fill="white"/>
<path d="M358.964 89.615H31.1851V104.063H358.964V89.615Z" fill="#F0EFEF"/>
<path d="M195.074 268.855C237.09 268.855 271.15 234.795 271.15 192.779C271.15 150.763 237.09 116.703 195.074 116.703C153.058 116.703 118.998 150.763 118.998 192.779C118.998 234.795 153.058 268.855 195.074 268.855Z" fill="#F8F1DF"/>
<path d="M297.347 50.112L296.004 58.24L293.319 73.789L289.29 97.537H100.859L100.718 96.477L100.364 94.357L99.5158 89.621L96.8308 73.789L94.1448 58.24L92.8018 50.112H297.347Z" fill="#BCBCBC"/>
<path d="M246.812 50.112C245.964 22.971 224.265 1.061 197.125 0.071C196.417 0 195.781 0 195.074 0H194.721C166.803 0.212 144.186 22.405 143.338 50.112C143.267 50.536 143.267 51.031 143.267 51.455V51.808C143.267 52.515 143.267 53.222 143.338 53.857C143.338 55.412 143.479 56.825 143.691 58.239C144.327 63.752 145.882 68.982 148.144 73.788C150.971 79.795 154.858 85.167 159.665 89.62C162.987 92.73 166.662 95.345 170.691 97.536H219.459C223.488 95.345 227.163 92.73 230.485 89.62C235.291 85.167 239.179 79.795 242.006 73.788C244.268 68.982 245.823 63.752 246.459 58.239C246.742 56.119 246.883 53.998 246.883 51.807C246.882 51.242 246.882 50.677 246.812 50.112ZM211.826 73.789C207.232 77.394 201.365 79.514 195.075 79.514C188.785 79.514 182.918 77.394 178.324 73.789C173.306 70.043 169.631 64.53 168.076 58.24C167.581 56.19 167.369 53.999 167.369 51.808C167.369 51.242 167.369 50.607 167.44 50.112C168.359 35.623 180.374 24.102 195.075 24.102C209.776 24.102 221.792 35.622 222.711 50.112C222.782 50.607 222.782 51.243 222.782 51.808C222.782 53.999 222.57 56.19 222.075 58.24C220.519 64.53 216.844 70.043 211.826 73.789Z" fill="#BCBCBC"/>
<path opacity="0.23" d="M92.8018 50.112L94.1448 58.24H94.2158L96.8308 73.789H293.319L295.934 58.24H296.005L297.348 50.112H92.8018Z" fill="white"/>
<path d="M249.022 180.193H141.127V214.845H249.022V180.193Z" fill="#D73E5C"/>
<path d="M212.4 143.572H177.748V251.467H212.4V143.572Z" fill="#D73E5C"/>
<path d="M345.871 289.849H44.2778V298.879H345.871V289.849Z" fill="#E5778A"/>
<path d="M329.166 324.162H60.9829V344.027H329.166V324.162Z" fill="#E5778A"/>
<path d="M329.166 372.019H60.9829V391.884H329.166V372.019Z" fill="#E5778A"/>
<path d="M264.603 419.877H125.545V439.742H264.603V419.877Z" fill="#E5778A"/>
<path opacity="0.04" d="M390.149 104.534V465.634C390.149 491.149 369.298 512 343.783 512H46.366C44.952 512 43.609 511.929 42.196 511.788C40.994 511.717 39.722 511.434 38.591 511.222C37.389 511.01 36.188 510.798 35.057 510.445C34.492 510.303 33.926 510.162 33.431 510.021C32.795 509.879 32.159 509.738 31.594 509.526C29.332 508.819 27.141 507.83 25.021 506.699C24.173 506.346 23.466 505.851 22.689 505.356C21.699 504.861 20.71 504.225 19.791 503.589C18.872 502.953 18.095 502.317 17.247 501.61C17.105 501.539 17.035 501.398 16.894 501.327C15.763 500.337 14.703 499.419 13.643 498.359C12.583 497.299 11.664 496.309 10.675 495.108C10.604 494.967 10.463 494.896 10.392 494.755C9.685 493.907 9.049 493.13 8.413 492.211C7.777 491.292 7.141 490.302 6.646 489.313C6.151 488.536 5.656 487.829 5.303 486.981C4.172 484.861 3.183 482.669 2.476 480.408C2.264 479.843 2.123 479.206 1.982 478.57C1.841 478.075 1.699 477.51 1.558 476.944C1.204 475.813 0.992 474.612 0.78 473.41C0.568 472.279 0.285 471.078 0.215 469.806C0.071 468.391 0 467.048 0 465.634V451.003L161.148 289.855L183.059 267.945L183.129 267.874L199.597 251.476L249.002 202.071L270.136 180.867L270.206 180.796L347.105 104.039L358.909 92.164L358.979 92.094L367.461 83.542L370.712 80.291L377.851 73.294C383.434 79.302 387.392 86.864 389.159 95.275C389.23 95.77 389.371 96.265 389.442 96.759C389.584 97.607 389.725 98.526 389.866 99.445C389.937 99.798 389.937 100.152 389.937 100.576C390.078 101.849 390.149 103.192 390.149 104.534Z" fill="#040000"/>
</svg>
